<svg id="Layer_1" xmlns="http://www.w3.org/2000/svg" width="54" height="92" viewBox="0 0 54 92"><style>.st0{fill:#FFF}</style><g id="XMLID_3_"><path class="st0" d="M38.9 59.8c.7 0 1.3-.2 2.1-.1.5 4.7-1.4 11.6 2.1 13 2 .8 4 .2 5.1-.6C51 70 49.8 64.3 50 59.9c.8 0 1.3-.2 2.2-.1v14.8h-2.1v-2.3c-1.4 3.2-9 3.9-10.8 0-1.4-3.2-.1-8-.4-12.5zM44.2 53c-1.8-3.8-3.7-8-5.2-11.5.8 0 1.5-.1 2.1-.3 2 3.6 3.5 7.7 5.3 11.5 1.8-3.7 3.3-7.6 4.9-11.5.7.1 1.4.3 2.2.3-2.2 5-4.3 10.2-6.8 15-1.2.4-2-2.4-2.5-3.5zM50.7 31.2c-3.2-.1-7.5-.6-8.5 1.7-1.8 4.7 6.8 4.9 8.2 1.4.5-.9.3-1.8.3-3.1zm-8.8-3.6c-1.9-4.2 5.8-5.7 9.1-3.8 3.6 2 1.2 8.8 1.9 13.4 0 .6 1.2-.1 1 .7-.4.6-1.9.5-2.6.4-.5-.4-.5-1.2-.7-2-1.4 2.4-7.7 3.6-10 .5-1.4-1.8-.8-5.2.9-6.4 1.7-1.2 4.4-.9 7-1.2 2-.2 2.7-1.4 1.6-3-1.6-2.3-7.8-1.4-8.2 1.4zM34.5 55.9c-5.2 2.7-11.5-.5-12.1-5.9-.5-5.1 2.8-8.4 7.4-8.7 3.3-.2 6.2 1.3 7.5 3.4 2.8 4.2.4 9.6-2.8 11.2zm-5.4-12.5c-3 .6-5.5 3.3-4.3 7.5 1.8 6.6 14.1 4.1 11.3-4-.8-2.2-3.1-4.2-7-3.5zM24.6 70.8c.5 3.4 7.5 2.8 8.5-.4.3-.9.1-1.7.1-2.9-3.6-.2-9.2-.7-8.6 3.3zM36.4 74c-.3.8-2.1.7-2.7.4-.2-.4-.5-.9-.4-1.7-.8.2-1.1 1.1-2.1 1.6-3.7 1.8-9.2.1-8.9-4.3.3-4.4 4.6-4 8.7-4.4.7-.1 1.6-.3 2.1-.9.5-4.8-8.3-4.1-8.9-.8-1.9-5.3 8.8-5.8 10.7-2.2 1.4 2.8-.2 7.6.4 11.8 0 .6 1.2-.1 1.1.5zM17.7 71.8c2.8-.9 2.6 3.2.4 3-1.2-.1-2.2-2.4-.4-3zM11.6 43.1c-1.5.3-2.6 1.1-2.9 2-1.8 5.1 6.4 6.4 7.5 2.2.8-2.8-1.2-4.8-4.6-4.2zm8.2 15.6c-1 2.3-5 3.4-8.7 3.1-2.4-.2-5.9-1.3-6-3.8-.1-2.5 2.8-2.8 5.5-2.9-1.2.7-3.2.4-3.5 1.7-.8 3.6 11.6 4.9 10.5-.6-.7-3.5-6-1.7-8.9-3.3-.1-1 .2-1.6.7-2.1-1.7-1.1-3.2-2.2-3.3-4.6-.1-4.5 6.2-6.7 10.2-4.2 1.7-.6 3-1.5 5.1-1.7 0 .8-.3 1.3-.5 2-1.2.1-2.2.4-3 .9 3.1 4.3-2 9.4-7.4 7.8.7 1.7 2.9 1 4.2 1.2 2.6.5 6.8 2.5 5.1 6.5zM.9 53.7c2.6-.9 2.6 3.2.4 3-1.4-.2-1.9-2.5-.4-3z"/></g><path class="st0" d="M25.9 34.6c.7 1.5 1.4 2.6 2.6 3.3 3 1.6 9.1.6 9.8-2.6.5-2.2-.6-3.7-1.6-4.3-2.3-1.6-8-.8-8.1-3.8-.1-2.2 3.4-2.7 5.5-2 1.4.5 1.7 1.4 2.3 2.5.4-.3 1-.5 1.4-.8-.2-5.6-13.1-5.2-11.3 1.4.5 2 2.5 2.4 4.7 3 1.9.5 4.7.9 4.8 2.9.2 3.9-8.6 3.2-8.5-.7-.7.2-1.1.6-1.7.9"/></svg>