<svg xmlns="http://www.w3.org/2000/svg" width="123" height="55" viewBox="0 0 123 55"><path fill="#FFF" d="M113.558 42.724h.822v-6.317h-.822v6.317zm6.076-2.62l.622-1.833c.118-.38.225-.774.305-1.14h.03c.092.365.187.738.315 1.15l.632 1.822h-1.903zm1.46-3.697h-.98l-2.14 6.317h.837l.657-1.987h2.24l.676 1.987h.867l-2.155-6.317zm-38.865.696h1.924v5.62h.824v-5.62h1.928v-.696H82.23v.696zm25.18-.696h-.826v6.317h3.52v-.684h-2.694v-5.633zm-8.002 3.696l.616-1.832c.12-.38.226-.774.306-1.14h.034c.093.365.188.738.315 1.15l.627 1.822h-1.9zm.476-3.696l-2.148 6.317h.846l.654-1.987h2.24l.677 1.987h.866l-2.152-6.317h-.984zm-7.795 2.96h-.837v-2.293A3.46 3.46 0 0 1 92.06 37c.858 0 1.452.356 1.452 1.17 0 .723-.55 1.198-1.423 1.198m1.052.347v-.027c.66-.227 1.195-.777 1.195-1.603 0-.497-.19-.93-.498-1.197-.395-.36-.966-.527-1.84-.527-.553 0-1.148.057-1.56.142v6.223h.812v-2.74h.77c.737.033 1.086.355 1.272 1.23.167.787.312 1.32.41 1.51h.85c-.127-.247-.275-.85-.48-1.73-.16-.662-.45-1.11-.932-1.28m-15.75-.57c-.868-.34-1.253-.625-1.253-1.21 0-.432.326-.95 1.187-.95.573 0 .994.18 1.195.305l.222-.676c-.274-.15-.75-.297-1.383-.297-1.227 0-2.042.727-2.042 1.71 0 .884.64 1.425 1.662 1.78.86.32 1.193.67 1.193 1.258 0 .64-.49 1.07-1.32 1.07-.562 0-1.087-.18-1.454-.404l-.214.675c.335.228 1 .414 1.61.414 1.486 0 2.2-.854 2.2-1.818 0-.93-.533-1.434-1.604-1.857m-6.776 1.01c0 1.39-.604 2.008-1.535 2.008-.84 0-1.47-.6-1.47-2.008v-3.748h-.823v3.72c0 1.972.974 2.702 2.27 2.702 1.364 0 2.385-.79 2.385-2.727v-3.696h-.825v3.748zm-10.724-.052l.615-1.832c.123-.38.23-.774.312-1.14h.027c.093.365.188.738.318 1.15l.625 1.822h-1.898zm.478-3.696l-2.145 6.317h.84l.656-1.987h2.242l.67 1.987h.876l-2.155-6.317h-.983zm1.74-5.77c-1.51 0-2.98-.468-3.885-.936l-.757 3.31c.84.442 2.598.91 4.39.91 4.375 0 6.373-2.195 6.373-4.774 0-2.086-1.196-3.507-3.88-4.505-1.892-.708-2.688-.997-2.688-1.75 0-.666.67-1.11 1.89-1.11 1.483 0 2.59.42 3.238.71l.843-3.22c-.978-.422-2.264-.754-4.04-.754-3.772 0-6.013 2.04-6.013 4.682 0 2.222 1.687 3.596 4.218 4.51 1.684.576 2.347.977 2.347 1.71 0 .75-.663 1.218-2.036 1.218m31.203-3.397c0 2.374-.777 3.526-2.38 3.526-1.572 0-2.352-1.263-2.352-3.527v-8.502h-4.018v8.167c0 4.798 2.178 7.035 6.264 7.035 4.195 0 6.503-2.33 6.503-6.944v-8.258H93.31v8.5zM76.32 30.765h-.044c-1.933 0-3.136-1.864-3.113-4.55 0-2.594 1.18-4.55 3.113-4.55 1.947 0 3.103 1.956 3.103 4.528 0 2.708-1.133 4.572-3.06 4.572m.04-12.273c-4.594 0-7.434 3.466-7.434 7.816 0 4.15 2.552 7.63 7.19 7.63h.02c4.598 0 7.48-3.062 7.48-7.878.003-3.996-2.44-7.57-7.257-7.57m33.34.245H97.985v3.374h3.816V33.7h4.018V22.11h3.883v-3.373zm4.67 14.962V27.79h4.863V33.7h4.017V18.736h-4.017v5.547h-4.864v-5.547h-4.016v14.96"/><g fill="#FFF"><path d="M42.874 27.582L19.222 12.805.25 24.66l5.648 17.362 9.475-5.922v-9.983h12.38v14.735l7.568 2.912z"/><path d="M26.78 27.094H16.347v9.375l.617.244V28.48h7.593v11.143l2.225.854z"/><path d="M17.938 29.453v1.39h3.83v7.713l1.813.693v-9.797z"/><path opacity=".75" d="M35.32 12.118l-4.34 8.032 11.894 7.432z"/></g></svg>