<svg xmlns="http://www.w3.org/2000/svg" width="146" height="61" viewBox="0 0 146 61"><path fill="#FFF" d="M54.543 32.373c-.728-.244-1.527-.357-2.383-.357-1.754 0-3.48.812-3.48 3.04 0 3.294 4.365 2.51 4.365 4.407 0 .898-1.013 1.283-1.77 1.283-.785 0-1.57-.242-2.254-.613l-.184 1.8c.984.24 1.47.384 2.553.384 2.01 0 3.737-.828 3.737-3.01 0-3.34-4.366-2.61-4.366-4.338 0-1.085.885-1.384 1.57-1.384.7 0 1.398.156 2.026.428l.187-1.64z"/><path fill-rule="evenodd" clip-rule="evenodd" fill="#FFF" d="M55.944 38.52c0 2.112 1.412 3.796 3.838 3.796 2.44 0 3.852-1.684 3.852-3.795 0-2.425-1.67-3.894-3.852-3.894-2.17 0-3.838 1.47-3.838 3.895zm1.998-.227c0-1.1.6-2.184 1.84-2.184 1.255 0 1.854 1.054 1.854 2.183 0 1.227-.385 2.54-1.854 2.54-1.455 0-1.84-1.327-1.84-2.54z"/><path fill="#FFF" d="M71.527 34.8h-1.912v3.593c0 .94-.3 2.44-1.684 2.44-1.226 0-1.24-1.214-1.24-2.112V34.8h-1.912v4.634c0 1.656.756 2.883 2.497 2.883 1 0 1.826-.457 2.412-1.17h.028v.998h1.812V34.8zM73.77 39.934c0 1.455.83 2.383 2.326 2.383.57 0 1.013-.06 1.412-.172l-.056-1.512c-.2.13-.528.2-.87.2-.73 0-.9-.585-.9-1.214v-3.425h1.698V34.8h-1.698v-2.087l-1.91.615v1.47h-1.414v1.397h1.413v3.74zM78.337 42.145h1.912V38.55c0-.942.298-2.44 1.683-2.44 1.227 0 1.24 1.213 1.24 2.11v3.925h1.914v-4.637c0-1.654-.757-2.88-2.497-2.88-1 0-1.826.454-2.312 1.17h-.03v-4.353h-1.91v10.7z"/><path fill-rule="evenodd" clip-rule="evenodd" fill="#FFF" d="M95.874 38.293h-2.91l1.44-4.11h.03l1.44 4.11zm-6.42 3.852h2.07l.87-2.28h4.036l.856 2.28h2.212l-3.91-9.957h-2.253l-3.88 9.957z"/><path fill="#FFF" d="M107.007 34.8h-1.912v3.593c0 .94-.3 2.44-1.684 2.44-1.226 0-1.24-1.214-1.24-2.112V34.8h-1.913v4.634c0 1.656.757 2.883 2.497 2.883 1 0 1.826-.457 2.412-1.17h.03v.998h1.81V34.8zM113.117 34.896c-.6-.127-1.185-.27-2.083-.27-1.5 0-2.883.697-2.883 2.28 0 2.655 3.326 1.67 3.326 3.11 0 .715-.77.9-1.256.9-.655 0-1.284-.186-1.883-.486l-.113 1.57c.698.186 1.44.314 2.167.314 1.557 0 3.084-.686 3.084-2.396 0-2.654-3.325-1.912-3.325-3.082 0-.627.612-.812 1.126-.812.7 0 1.126.113 1.712.312l.13-1.44zM115.23 39.934c0 1.455.828 2.383 2.325 2.383.572 0 1.014-.06 1.412-.172l-.057-1.512c-.2.13-.527.2-.87.2-.728 0-.9-.585-.9-1.214v-3.425h1.7V34.8h-1.7v-2.087l-1.91.615v1.47h-1.412v1.397h1.412v3.74zM119.838 42.145h1.913V39.45c0-1.057 0-2.996 1.556-2.996.343 0 .686.057.856.156v-1.926c-.2-.057-.4-.057-.584-.057-1.142 0-1.926 1.154-2.01 1.84h-.03V34.8h-1.698v7.345h-.002z"/><path fill-rule="evenodd" clip-rule="evenodd" fill="#FFF" d="M125.375 36.824c.643-.486 1.456-.8 2.268-.8 1.128 0 1.656.4 1.656 1.583h-1.058c-.8 0-1.74.072-2.467.43-.728.355-1.256.998-1.256 2.096 0 1.398 1.27 2.184 2.567 2.184.872 0 1.826-.457 2.27-1.27h.028c.014.23.014.713.085 1.098h1.684a31.82 31.82 0 0 1-.085-1.64 61.96 61.96 0 0 1-.03-1.84v-.942c0-2.17-.927-3.096-3.167-3.096a6.55 6.55 0 0 0-2.554.557l.055 1.64zm.97 3.194c0-1.125 1.27-1.268 2.127-1.268h.828c0 .57-.086 1.098-.4 1.512-.3.4-.756.656-1.34.656-.686 0-1.214-.272-1.214-.9z"/><path fill="#FFF" d="M132.612 42.145h1.91v-10.7h-1.91v10.7z"/><path fill-rule="evenodd" clip-rule="evenodd" fill="#FFF" d="M136.22 42.145h1.914V34.8h-1.913v7.345zm0-8.688h1.914V31.63h-1.913v1.827zM140.173 36.824c.643-.486 1.455-.8 2.27-.8 1.126 0 1.654.4 1.654 1.583h-1.057c-.798 0-1.74.072-2.467.43-.728.355-1.256.998-1.256 2.096 0 1.398 1.27 2.184 2.568 2.184.87 0 1.826-.457 2.27-1.27h.028c.014.23.014.713.086 1.098h1.682c-.042-.57-.07-1.084-.085-1.64-.014-.544-.03-1.1-.03-1.84v-.942c0-2.17-.926-3.096-3.166-3.096a6.56 6.56 0 0 0-2.553.557l.056 1.64zm.97 3.194c0-1.125 1.27-1.268 2.127-1.268h.828c0 .57-.086 1.098-.4 1.512-.3.4-.755.656-1.34.656-.686 0-1.214-.272-1.214-.9z"/><path fill="#FFF" d="M56.912 18.154c-.856-.258-1.77-.414-2.925-.414-3.38 0-5.464 1.912-5.464 5.322 0 3.367 2.24 4.98 5.464 4.98 1.07 0 2.17-.23 3.225-.515v-5.363H53.19v1.568h2.11v2.598a5.49 5.49 0 0 1-1.312.14c-2.125 0-3.38-1.524-3.38-3.55 0-2.04 1.283-3.61 3.608-3.61.8 0 1.797.17 2.568.528l.128-1.684z"/><path fill-rule="evenodd" clip-rule="evenodd" fill="#FFF" d="M58.314 24.246c0 2.11 1.413 3.795 3.838 3.795 2.44 0 3.852-1.683 3.852-3.794 0-2.426-1.67-3.895-3.852-3.895-2.168.002-3.838 1.47-3.838 3.896zm1.998-.228c0-1.098.6-2.184 1.84-2.184 1.256 0 1.855 1.057 1.855 2.184 0 1.227-.385 2.54-1.854 2.54-1.456 0-1.84-1.328-1.84-2.54z"/><path fill="#FFF" d="M69.06 27.87h2.155l2.71-7.347h-1.91l-1.77 5.35h-.03l-1.825-5.35h-2.055l2.726 7.346z"/><path fill-rule="evenodd" clip-rule="evenodd" fill="#FFF" d="M76.083 23.477c.085-.984.627-1.727 1.698-1.727 1.07 0 1.498.8 1.556 1.727h-3.253zM80.62 25.9c-.713.4-1.512.742-2.44.742-1.184 0-2.012-.67-2.097-1.854h5.08c0-2.568-.77-4.438-3.496-4.438-2.283 0-3.41 1.754-3.41 3.88 0 2.41 1.412 3.81 3.838 3.81 1.027 0 1.826-.2 2.524-.584V25.9z"/><path fill="#FFF" d="M82.35 27.87h1.91v-2.696c0-1.055 0-2.996 1.556-2.996.342 0 .685.057.856.156v-1.926c-.2-.057-.4-.057-.585-.057-1.142 0-1.926 1.157-2.012 1.84h-.028v-1.667H82.35v7.346zM87.756 27.87h1.913v-3.597c0-.94.3-2.44 1.682-2.44 1.23 0 1.242 1.214 1.242 2.114v3.922h1.91V23.23c0-1.654-.754-2.88-2.496-2.88-.998 0-1.812.327-2.41 1.17h-.03v-1h-1.81v7.347h-.002zM96.093 27.87h1.91v-3.567c0-.955.157-2.47 1.427-2.47 1.098 0 1.098.972 1.098 1.657v4.38h1.913v-3.567c0-.955.157-2.47 1.427-2.47 1.1 0 1.1.972 1.1 1.657v4.38h1.912V23.23c0-1.64-.516-2.88-2.326-2.88-.9 0-1.855.413-2.297 1.298-.414-.914-1.142-1.3-2.17-1.3-.712 0-1.582.3-2.182 1.198h-.028v-1.025h-1.783v7.346z"/><path fill-rule="evenodd" clip-rule="evenodd" fill="#FFF" d="M109.81 23.477c.084-.984.626-1.727 1.697-1.727 1.07 0 1.498.8 1.555 1.727h-3.253zm4.536 2.423c-.714.4-1.513.742-2.44.742-1.185 0-2.013-.67-2.098-1.854h5.08c0-2.568-.77-4.438-3.496-4.438-2.283 0-3.41 1.754-3.41 3.88 0 2.41 1.412 3.81 3.838 3.81 1.027 0 1.826-.2 2.526-.584V25.9z"/><path fill="#FFF" d="M116.032 27.87h1.91v-3.597c0-.94.3-2.44 1.685-2.44 1.227 0 1.242 1.214 1.242 2.114v3.922h1.91V23.23c0-1.654-.755-2.88-2.497-2.88-.998 0-1.812.327-2.412 1.17h-.027v-1h-1.812v7.347h.002zM125.023 25.658c0 1.455.828 2.383 2.325 2.383.572 0 1.014-.056 1.414-.17l-.057-1.513c-.2.13-.528.2-.87.2-.73 0-.9-.585-.9-1.212V21.92h1.698v-1.396h-1.697V18.44l-1.913.613v1.47h-1.412v1.397h1.413v3.738z"/><path fill-rule="evenodd" clip-rule="evenodd" fill="#FFF" d="M132.73 24.246c0 2.11 1.41 3.795 3.837 3.795 2.44 0 3.852-1.683 3.852-3.794 0-2.426-1.67-3.895-3.853-3.895-2.17.002-3.838 1.47-3.838 3.896zm1.996-.228c0-1.098.6-2.184 1.84-2.184 1.255 0 1.855 1.057 1.855 2.184 0 1.227-.384 2.54-1.853 2.54-1.456 0-1.84-1.328-1.84-2.54z"/><path fill="#FFF" d="M142.262 27.87h1.912v-5.95h1.67v-1.396h-1.67v-.914c0-.57.2-1.127.842-1.127.413 0 .655.156.827.256l.157-1.586a6.86 6.86 0 0 0-1.398-.156c-1.513 0-2.34 1.027-2.34 2.498v1.027h-1.413v1.396h1.412v5.95z"/><g fill="#FFF"><path fill-rule="evenodd" clip-rule="evenodd" d="M30.067 25.307c1.885 3.635 1.162 8.703-1.55 11.725-2.82 3.2-6.863 4.46-11.053 3.46-3.74-.743-7.16-4.403-7.903-8.083-1.045-4.495.77-8.782 4.47-11.39 3.105-2.268 8.122-2.475 11.44-.518 1.9.994 3.694 2.9 4.597 4.805zm.284.18c1.848 3.862.944 8.954-2.013 12.01-2.84 2.993-6.92 4.177-11.002 3.15-3.984-.866-7.535-4.817-8.083-8.833-.743-4.37 1.07-8.316 4.57-10.873 3.203-2.42 8.523-2.587 11.932-.49 1.937 1.08 3.732 3.062 4.597 5.036zM8.27 34.14c.277.495.606.974.826 1.495-.194.084-.22-.213-.388-.258l-.257.053-2.4 1.342c-.285.207-.395.486-.414.803.025.49.29.998.774 1.188 1.072.09 1.886-.764 2.815-1.188.22-.143.37-.37.388-.62l-.052-.362h.105l.723 1.316-.052.052c-.232-.24-.536-.387-.878-.285l-2.35 1.24c-.433.078-.937.025-1.24-.36-.426-.524-.73-1.138-.594-1.86.058-.31.362-.543.62-.7l2.272-1.263c.24-.168-.02-.414.026-.592h.078z"/><path d="M31.9 34.525c.014.232-.173.568.182.646l3.073 1.396c.245 0 .245-.414.465-.31-.24.515-.446 1.07-.723 1.548h-.078c0-.18.115-.373 0-.543l-3.203-1.495c-.246-.04-.29.303-.49.336.18-.548.432-1.065.696-1.575h.078zM29.292 38.527c.04.195-.284.33-.13.57l2.532 2.35c.323.148.53-.246.697-.44.4-.54.26-1.438-.077-1.962.02-.045.07-.02.104-.025l.904 1.238c-.735.795-1.458 1.57-2.247 2.3-.025.007-.04-.013-.05-.026.025-.18.23-.322.154-.516l-2.557-2.402c-.226-.162-.433.355-.542.078l1.137-1.164h.077z"/><path fill-rule="evenodd" clip-rule="evenodd" d="M12.634 39.846c.058.143.116.285.26.387l.23-.05v.153c-.264.36-.502.736-.8 1.084h-.077c.148-.555.523-1.336-.026-1.86-.154-.192-.373-.237-.593-.282-.264.02-.516.22-.62.465-.13 1.084 1.388 2.002.36 3.047-.27.258-.6.38-.98.36-.67-.05-1.207-.625-1.523-1.187-.103-.13-.226-.076-.36-.05v-.132c.367-.417.754-.856 1.11-1.263h.076c-.258.574-.71 1.26-.31 1.912.213.23.465.48.8.49.324.017.595-.202.75-.468.297-1.154-1.614-2.246-.155-3.23.665-.365 1.498-.048 1.86.624z"/><path d="M14.985 41.266c.936.322 1.847.717 2.84.904a9.34 9.34 0 0 1-.23 1.47c-.13-.14-.065-.41-.156-.593-.11-.432-.44-.93-.905-1.057l-1.24 3.434c.04.252.35.238.465.414l-.052.05c-.6-.212-1.22-.392-1.808-.644v-.053c.18-.038.394.077.594 0 .51-1.103.858-2.27 1.292-3.41.02-.08-.078-.1-.13-.126-.696-.072-1.232.25-1.704.723-.116-.02 0-.123 0-.182l.723-1.135.31.206z"/><path fill-rule="evenodd" clip-rule="evenodd" d="M6.668 31.143c-.387.31-.865.53-1.317.75l-.103-1.11 1.42.36zm-2.97-1.137c.95.613 2.12.69 3.177 1.033.323-.382.633.208 1.007.155l.052.053c-1.26.7-2.53 1.477-3.796 2.22-.22.09-.07.407-.258.44-.09-.53-.142-1.11-.18-1.626-.008-.047.07-.02.102-.027.078.13.032.387.258.387.388-.174.794-.355 1.11-.645l-.128-1.267c-.355-.11-.788-.342-1.162-.104-.226.104-.084.426-.31.465-.064-.476-.155-.974-.155-1.444.187.012.16.25.284.36zM21.416 42.635c.355.37.316.963.13 1.395-.26.342-.672.305-1.06.336-.058-.613-.11-1.26-.052-1.885.342.012.717-.05.982.155zm.877.103c.187.238.29.535.207.852-.174.498-.704.69-1.136.826.33.117.755.344.904.725.278.407.426 1.155 1.085 1.11v.078c-.388.02-.762.07-1.162.05-.432-.6-.632-1.368-1.29-1.806-.117-.045-.26-.02-.388-.025l-.052.076.078 1.523c.116.174.316.143.49.182.04.104-.077.143-.155.13l-1.55.052-.05-.053c.11-.182.412-.05.49-.31l-.13-3.437c-.082-.25-.38-.146-.516-.28l.078-.054c1.033.046 2.292-.38 3.098.362zM26.813 43.28l-1.007.49c-.123-.458-.084-.98-.13-1.472.388.298.79.647 1.137.983zm2.35.697v.053c-.497.232-.987.484-1.497.672-.045-.182.394-.238.232-.49l-.904-.8c-.426.173-.872.36-1.24.618.07.406.014.938.49 1.11h.363v.077c-.445.188-.897.46-1.343.568.368-.29.413-.78.413-1.213l-.155-2.377c-.497-.154-.02-.672-.207-1.033l.052-.05 3.41 2.864h.387zM35 32.46c-.47-.136-.878-.433-1.317-.645.433-.193.93-.348 1.42-.465L35 32.46zm1.937-2.737c-.006.518-.083 1.066-.13 1.602l-.077.025c-.096-.13-.005-.342-.18-.44a3.427 3.427 0 0 0-1.266.39l-.13 1.264c.33.2.666.46 1.086.363.24-.05.226-.367.438-.414-.05.498-.025 1.02-.18 1.473a1.377 1.377 0 0 0-.646-.852l-2.402-1.266c-.394.355-.607-.35-.982-.36v-.08a114.83 114.83 0 0 0 4.236-1.368c.156-.078.06-.312.233-.337z"/><path d="M22.14 13.322c-.06.162-.298.117-.414.258-.342.316-.24.814-.258 1.266-.078.854.394 2.26-.75 2.635-.632.194-1.4.118-1.936-.23-.316-.253-.42-.58-.44-.956l-.077-2.635c-.097-.24-.42-.06-.49-.26.554-.097 1.2-.032 1.755-.052.026.227-.27.098-.388.207l-.103.156.076 2.894c.045.277.284.547.543.67.38.135.89.2 1.238-.05.323-.253.458-.62.44-1.034-.117-.82.154-1.8-.233-2.506-.136-.193-.4-.2-.517-.336l.18-.05c.46.083.912-.06 1.37.024zM27.794 15.027h.18a9.325 9.325 0 0 1-.31 1.47c-.063-.218-.096-.5-.154-.747-.13-.375-.394-.807-.8-.955-.518 1.117-.943 2.266-1.396 3.408.052.24.31.285.465.44-.027.083-.17.058-.233.026-.523-.255-1.085-.43-1.602-.7.084-.115.31 0 .465 0 .258.033.27-.264.362-.412.355-1.033.833-2.016 1.188-3.05-.697-.282-1.35.163-1.885.57.213-.446.478-.866.8-1.267l.336.233 2.584.984zM31.72 17.842c-.006.033.02.084-.026.104-.2-.006-.31-.303-.542-.154l-1.06 1.084c.35.47.8.78 1.19 1.215h.077c.29-.524 1.503-.923.877-1.575.058-.123.142.006.207.025l1.085 1.11-.053.077c-.194-.012-.317-.297-.542-.154l-2.48 2.53c-.05.2.19.284.182.466h-.13c-.38-.394-.812-.77-1.135-1.19.207-.11.458.388.67.026l1.137-1.137c-.343-.44-.795-.827-1.19-1.24h-.076l-1.24 1.265c-.136.207.355.414.078.518L27.59 19.65v-.077c.2-.025.393.348.62.104l2.426-2.453c.13-.246-.36-.434-.077-.543l1.16 1.162z"/><path fill-rule="evenodd" clip-rule="evenodd" d="M9.793 18.643v.104c-.55-.207-1.272-.607-1.833-.154-.24.18-.342.412-.387.672.025.244.207.443.413.594 1.04.18 1.867-.995 2.918-.39.33.232.472.594.543.955.05.62-.336 1.1-.827 1.447-.2.104-.433.193-.568.387-.02.083.033.136.052.206l-.052.05c-.47-.358-.923-.81-1.343-1.237l.05-.052c.524.314 1.092.676 1.757.49.35-.17.665-.53.672-.93a.883.883 0 0 0-.466-.697C9.6 19.826 8.07 21.7 7.392 19.885c-.116-.523.04-1.06.465-1.422.24-.27.866-.225.75-.723h.077l1.11.903zM15.32 16.63c.188.483.227 1.23-.128 1.65-.27.292-.607.42-.98.466-1.092-.064-1.596-1.28-1.86-2.143-.104-.486-.078-1.04.283-1.396.35-.322.853-.49 1.317-.31.703.29 1.116 1.072 1.37 1.732zm.57-.853c.328.6.277 1.457-.053 2.04-.38.644-1.065 1.11-1.808 1.16-.77.02-1.447-.237-1.938-.85a2.333 2.333 0 0 1-.36-1.964c.245-.8 1.045-1.498 1.885-1.576.948-.07 1.84.343 2.272 1.19z"/><path d="M1.376 22.795C4.28 15.178 11.646 9.768 20.284 9.768c8.642 0 16.017 5.416 18.917 13.04l-2.047.76c-2.588-6.788-9.172-11.6-16.87-11.6-7.692 0-14.26 4.817-16.85 11.6l-2.057-.773zM2.545 33.25c1.53 8.406 8.888 14.783 17.74 14.783s16.213-6.377 17.743-14.783l2.163.406c-1.72 9.428-9.98 16.576-19.905 16.576S2.105 43.086.382 33.66l2.163-.41z"/><path fill-rule="evenodd" clip-rule="evenodd" d="M20.28 36.205c.218.527.322 1.135.31 1.73-.763-.323-.29-1.175-.388-1.73h.077zm-.337 0c.006.555.277 1.342-.336 1.703h-.077c-.032-.638.226-1.18.413-1.703zm.57-.13c.218.55.65 1.013.773 1.6.026.093-.084.2-.155.18-.173-.612-.567-1.134-.67-1.78h.052zm-4.134-.026c.005.122-.13.226-.233.257-.226.014-.58.11-.723-.102.084-.383.6-.137.904-.21l.05.054zm2.763 1.833c-.077.07-.174-.03-.207-.104.142-.653.517-1.208.775-1.81-.05.66-.38 1.272-.567 1.913zm.387-1.912c-.18.59-.69 1.048-.956 1.605-.045.018-.07-.027-.104-.053.292-.543.634-1.112 1.06-1.55zm-1.395 1.32h-.05c.16-.53.748-.905 1.135-1.32-.148.5-.846.81-1.085 1.32zm.104-1.294c-.15.086-.298.467-.57.285-.018-.128.118-.218.208-.284a.6.6 0 0 1 .36 0zm-1.06 0c.07.11 0 .273-.13.285-.187-.02-.31.046-.464-.05a.472.472 0 0 1 .155-.234.882.882 0 0 1 .44 0zm7.54.053c-.076.425-.62.155-.93.23.02-.173.214-.25.337-.335.2.034.484-.084.594.104zm-1.083-.054c.006.123-.13.23-.232.26-.123.05-.297.025-.362-.078-.032-.143.084-.193.18-.232.136.02.31-.046.414.05zm-.982.053c-.026.083-.04.175-.13.23-.244.1-.412-.153-.593-.284.187-.057.568-.12.723.053zm-.826 1.446c-.014.062.03.148-.053.18-.31-.594-.98-1.11-1.084-1.78l1.136 1.6zm.593-.57v.078c-.472-.36-.872-.852-1.266-1.29.47.335.852.78 1.266 1.212zm-1.55-1.213c.53.518.923 1.02 1.37 1.576.005.083 0 .16-.078.206-.446-.62-.98-1.137-1.37-1.783h.078zm-2.918 1.162h-.077c.04-.36.497-.535.75-.8l.516-.362c-.33.44-.815.723-1.19 1.162zm1.29-1.678c-.277.58-1 .502-1.575.465.033-.188.316-.355.49-.49.402.096 1.047-.936 1.086.025zm2.687-.258c.245.198.497.417.697.67-.537-.046-1.28.265-1.603-.362l.207-.62c.188.22.466.208.698.31zm-.675-1.294c.046-.174-.125-.51.185-.463l.103-.645a4.055 4.055 0 0 1-.284-2.79c-.005-.376-.135-.77-.49-.93-.252.116-.148.466-.284.67-.24.396-.633.634-1.085.62-.322-.025-.083.27-.154.44.064.956-.813 1.743-.31 2.66l.052-.052c.272-.006.103.28.122.488a.22.22 0 0 0 .033.105c.11.257.304.515.336.772h-.182c.148.53.342 1.11.853 1.42.446-.354.646-.852.8-1.342l-.128-.078c.162-.264.342-.52.414-.824a.14.14 0 0 0 .02-.052m.947 0c-.11-.29-.096-.633-.27-.875-.11-.052-.195.077-.208.155-.06.22-.135.475-.152.723-.022.312.048.613.36.824l1.083 1.033c.66-.115 1.09.31 1.73.232.123.02.188.156.232.258.04.23-.142.428-.335.492-.426-.143-.755.56-1.085.05-.18.06-.303.26-.542.183-.11-.084-.232-.22-.387-.13.108.394.516.66.49 1.11-.38-.006-.323.55-.723.49-.104.123-.078.39-.31.363-.336-.11-.465.42-.827.154l-.31.36-.465-.18c-.187.122-.284.466-.542.26-.09-.118-.207-.292-.362-.312-.122.04-.225.13-.36.13-.123-.542-.762.116-.827-.464-.207-.09-.58 0-.594-.335-.117-.104-.33-.033-.388-.234.103-.27-.278-.204-.258-.437.064-.33.265-.594.44-.88-.175-.122-.33.11-.518.105-.18-.033-.355-.277-.517-.025-.188.03-.324-.047-.466-.13-.207.026-.594.063-.827-.077a.49.49 0 0 1-.103-.492c.297-.496 1.007-.096 1.395-.438.955.303 1.394-.69 2.014-1.137a1 1 0 0 0 .196-.776c-.04-.35-.194-.7-.274-1.03-.104-.007-.13.108-.155.18-.02.288-.01.593-.112.85a.796.796 0 0 1-.223.313c-.31-.11-.58-.047-.827.154-.213-.05-.31-.444-.568-.308-.136.102-.246.34-.44.23-.096-.104-.147-.246-.283-.31-.18 0-.394.233-.542 0-.016-.022-.032-.05-.05-.077v-.002c-.074-.12-.17-.258-.337-.154a.64.64 0 0 1-.387.077l-.257-.438c-.233-.093-.594.204-.646-.157-.02-.11-.04-.297-.207-.258-.284-.006-.6.137-.852-.025.02-.238.16-.465.18-.672-.264-.064-.684.045-.877-.207.033-.226.098-.438.182-.644-.322-.072-.69-.053-.98-.207-.066-.24.147-.423.257-.622-.22-.168-.517-.18-.698-.387.013-.343.38-.495.568-.747-.142-.246-.44-.344-.62-.594.168-.267.445-.487.697-.65-.148-.294-.536-.462-.568-.772.22-.137.425-.31.697-.31l.077-.077c-.136-.226-.38-.4-.465-.645.34-.143.78-.033 1.11-.207-.097-.303-.472-.49-.543-.8.35-.2.736.044 1.085 0-.278-.272-.542-.595-.542-1.01.226-.153.432.06.646.106a7.62 7.62 0 0 0 1.007.54l.05-.052c-.283-.463-.916-.818-.85-1.393.696.128 1.226.632 1.832 1.058.02-.22-.22-.4-.284-.62-.167-.446-.497-.827-.438-1.368.284-.008.523.322.723.54l.594.83c.18-.294-.105-.52-.156-.776.006-.46-.252-.963.026-1.37.42.097.484.614.645.956.09.324.123.666.285.955.006-.63.155-1.266.026-1.885.05-.264.206-.55.44-.672l.102.207c.064.383.09.775.078 1.188l.05.053c.17-.064.195-.3.39-.31.464 1.376-.175 2.743-.336 4.08.02.75.226 1.415.542 2.04-.168.633.58.885.646 1.42.136.215.362.035.542.053.18.013.277.298.49.155.31-.193.272-.568.233-.88-.258-.343-.774-.394-.93-.825.258-.027.536.045.775.13l.05-.054c-.192-.29-.49-.45-.773-.594.13-.135.413-.07.594-.05.825.33 1.89.587 2.246 1.573.07.213.058.467.207.646.27-.058.55.122.775-.05.994-.846.71-2.215 1.24-3.256-.097-1.48-.213-2.893-.13-4.416.027-.064.117-.064.156-.025.07.07.09.205.207.205.13-.36.014-.818.31-1.11.292.08.39.42.415.698V22.9l.052.05c.18-.42.29-.885.697-1.188.097-.064.187.053.18.154-.057.607-.044 1.254-.412 1.732.013.11 0 .225.077.31.406-.505.754-1.267 1.445-1.472.232.367-.077.773-.232 1.11-.29.25-.368.587-.568.876l.05.053c.466-.568 1.085-1.092 1.783-1.266.135.147-.032.29-.052.438-.284.213-.245.56-.465.8-.23.298-.567.458-.774.724.284-.05.53-.36.827-.465.407-.22.82-.414 1.317-.414.11.3-.29.484-.49.672-.213.137-.38.305-.517.516.458-.07.968-.405 1.472-.204-.078.33-.433.477-.594.773.124.103.292 0 .44 0 .22.032.458.02.62.208-.052.31-.465.4-.594.67.258.148.6.11.827.336v.13l-.568.515.026.077c.317.143.634.33.88.594l-.027.132c-.245.162-.51.264-.75.44.11.23.48.327.492.618l-.8.387c.064.26.4.504.31.826-.278.092-.62.027-.88.156.09.218.227.464.208.696-.304.096-.685.006-.956.18.007.22.013.44-.13.596l-.54.025-.337.49c-.258.045-.516-.213-.723.027l-.207.36c-.194.013-.33-.11-.517-.103a.456.456 0 0 0-.13.18c-.068.138-.124.28-.283.233-.13-.045-.232-.22-.387-.13-.084.105-.162.233-.258.312-.18-.033-.35-.266-.542-.104-.09.09-.174.2-.31.183-.09-.137-.27-.336-.44-.182-.102.124-.238.097-.36.026a.737.737 0 0 1-.246-.34m-2.11-5.23c.008.05-.005.135-.076.104h-.077v-.154c.052.017.155-.047.155.05zm3.436.05c.142-.013.142-.192.31-.153.13.27-.426.373-.18.568.14-.052.31-.214.464-.077-.007.213-.284.213-.336.387.227.014.44.098.57.285.038.104-.08.143-.156.13-.194.038-.394-.08-.542 0 .116.198.42.23.387.515-.266.104-.434-.174-.672-.205-.065.186.245.283.207.49-.24.078-.413-.162-.594-.258-.044.123.04.252.105.36-.188.09-.375-.044-.465-.206-.26-.366.226-.62.335-.93.342-.335.336-.82.542-1.214.046.118-.096.22.026.31zm-5.888.802c.258.168.33.46.414.725.02.238-.11.443-.31.566-.11.007-.19-.07-.182-.18-.045-.087.097-.157-.026-.208-.135.09-.258.277-.44.18-.063-.18.105-.328.156-.49-.207-.025-.355.316-.62.154-.058-.22.13-.336.232-.49-.207-.115-.362.117-.568 0 .013-.186.33-.25.49-.387-.14-.1-.367-.228-.386-.44.24-.13.4.246.62.078.006-.193-.226-.36-.104-.543.09.04.155.135.233.207.16-.045.02-.207.025-.31.233.32.04.872.465 1.136zm1.962-1.008c-.058.13.033.37-.18.387-.182-.012-.324-.107-.466-.205.175-.084.434.174.595-.025.032-.266-.232-.406-.387-.594.26-.014.453.18.44.437zm4.96-.67c.012.244-.272.127-.39.232-.07-.148.175-.232.285-.285.04 0 .11-.006.104.053zm.154-.39c-.115.18-.354.175-.54.233.063-.174.33-.355.54-.414.117.045 0 .123 0 .18zm-.025-.67c-.05.252-.368.426-.568.594-.084-.283.258-.52.465-.748.084-.014.123.083.103.154zm-8.135-.08c-.104.513-.187.997-.078 1.524-.174.008-.303-.096-.438-.18a.428.428 0 0 1-.078-.31c.13-.058.246.22.388.052-.032-.252-.355-.336-.44-.568.188-.13.37.27.492 0-.078-.22-.51-.303-.388-.594l.26.13c.01-.214-.195-.37-.13-.57.173.11.277.344.412.517zm7.98-.54c-.03.244-.244.48-.412.697h-.026c.02-.25.238-.53.44-.697zm-7.902.258c-.142-.213-.38-.53-.207-.8.162.206.136.535.208.8zm7.412-.85c-.058.212-.213.45-.104.67.143-.09.13-.335.31-.388-.026.277-.13.582-.31.826-.194-.393-.18-.93-.103-1.37.15.007.136.177.207.26zm-7.13-.572c.014.39.105.775-.076 1.11.058-.366-.536-.883.077-1.11z"/><path d="M0 29.838h2.186v.55H0v-.55zM.027 29.44l.02-.545 2.175.085-.022.55-2.173-.09zM.09 28.53l.043-.544 2.16.172-.042.545-2.16-.172zM.19 27.62l.065-.542 2.15.26-.066.54-2.15-.257zM.327 26.71l.086-.538 2.137.344-.087.54-2.136-.347zM.463 25.8l.108-.536 2.126.43-.108.536-2.125-.43zM.673 24.908l.13-.533 2.113.518-.13.53-2.113-.515zM1.072 23.486l2.1.604-.15.527-2.103-.6.152-.53zM40.508 29.838h-2.186v.55h2.186v-.55zM40.48 29.44l-.02-.545-2.174.085.022.55 2.173-.09zM40.418 28.53l-.043-.544-2.162.172.043.545 2.162-.172zM40.318 27.62l-.065-.542-2.15.26.065.54 2.15-.257zM40.182 26.71l-.087-.538-2.137.344.086.54 2.138-.347zM40.045 25.8l-.11-.536-2.123.43.108.536 2.125-.43zM39.834 24.908l-.13-.533-2.113.518.133.53 2.11-.515zM39.436 23.486l-2.1.604.15.527 2.102-.6-.152-.53z"/></g></svg>