<svg id="Layer_1" xmlns="http://www.w3.org/2000/svg" width="120" height="55" viewBox="0 0 120 55"><style>.st0{fill:#FFF}</style><g id="XMLID_3_"><path class="st0" d="M117.808 34.436c-1.364 3.147-8.89 3.867-10.698 0-1.417-3.034-.118-7.878-.386-12.244.698-.032 1.255-.208 2.062-.13.496 4.646-1.395 11.453 2.063 12.89 1.945.81 3.947.153 5.025-.645 2.744-2.032 1.585-7.676 1.804-12.115.778.003 1.326-.22 2.19-.13v14.694h-2.062v-2.32zM92.545 33.018c.53 3.362 7.39 2.768 8.38-.387.274-.883.05-1.702.128-2.836-3.492-.21-9.124-.687-8.508 3.224zm9.023 3.61c-.24-.445-.463-.913-.386-1.677-.784.214-1.107 1.076-2.064 1.548-3.67 1.806-9.104.118-8.765-4.253.345-4.394 4.518-3.914 8.636-4.383.73-.084 1.575-.28 2.062-.902.535-4.798-8.19-4.067-8.765-.773-1.86-5.227 8.73-5.763 10.568-2.19 1.41 2.743-.242 7.512.387 11.73-.055.57 1.12-.09 1.03.515-.295.79-2.09.66-2.704.385zM85.714 34.05c2.73-.93 2.573 3.13.387 2.964-1.118-.086-2.194-2.35-.386-2.965zM76.176 33.146c1.754-3.657 3.257-7.57 4.898-11.342.685.133 1.345.286 2.19.258-2.204 4.97-4.267 10.08-6.7 14.822-1.265.317-2.084-2.4-2.58-3.48-1.738-3.793-3.618-7.907-5.155-11.342.768-.006 1.49-.058 2.062-.258 1.994 3.55 3.468 7.617 5.284 11.342zM54.78 31.343c1.832 6.533 14.005 4.087 11.214-3.997-.753-2.183-3.008-4.203-6.96-3.48-3.017.555-5.42 3.316-4.254 7.477zm12.503-6.188c2.706 4.183.295 9.47-2.836 11.085-5.148 2.658-11.44-.5-11.987-5.8-.524-5.083 2.722-8.31 7.347-8.636 3.3-.232 6.152 1.304 7.476 3.35zM38.927 25.542c-1.782 5.043 6.378 6.338 7.475 2.19.733-2.772-1.266-4.708-4.64-4.124-1.502.258-2.55 1.123-2.835 1.934zm5.8 7.218c2.71.356 6.858 2.322 5.155 6.316-.98 2.297-4.91 3.4-8.636 3.093-2.335-.193-5.872-1.32-5.93-3.738-.057-2.48 2.74-2.78 5.414-2.836-1.156.678-3.188.395-3.48 1.675-.808 3.536 11.458 4.82 10.44-.643-.65-3.494-5.96-1.728-8.764-3.223-.11-1.013.24-1.565.643-2.062-1.674-1.07-3.194-2.144-3.224-4.512-.054-4.488 6.135-6.59 10.054-4.125 1.666-.57 2.94-1.53 5.027-1.675-.04.778-.296 1.338-.516 1.933-1.183.104-2.225.35-2.963.902 3.11 4.295-1.967 9.308-7.347 7.734.67 1.714 2.88.996 4.126 1.16zM31.58 37.014c-1.41-.13-1.9-2.433-.388-2.965 2.588-.913 2.61 3.166.387 2.964zM16.24 31.472c-1.813 4.644 6.7 4.84 8.12 1.417.398-.956.185-1.805.26-3.096-3.207-.087-7.476-.638-8.38 1.678zm8.38 3.35c-1.414 2.4-7.592 3.55-9.926.516-1.392-1.81-.812-5.136.902-6.315 1.67-1.148 4.372-.865 6.96-1.16 2.015-.232 2.65-1.417 1.547-2.965-1.668-2.347-7.833-1.52-8.25 1.29-1.838-4.18 5.698-5.618 9.024-3.738 3.588 2.025 1.237 8.7 1.933 13.275.013.545 1.185-.066 1.03.644-.442.564-1.856.48-2.576.386-.478-.382-.528-1.193-.644-1.934zM10.698 29.538c.962.638 1.995 2.084 1.546 4.253-.657 3.185-6.71 4.17-9.667 2.58C1.36 35.714.692 34.615 0 33.145v-.13c.55-.31 1.023-.693 1.677-.9-.11 3.838 8.533 4.485 8.377.644-.08-1.957-2.868-2.335-4.768-2.837-2.177-.572-4.124-1.02-4.64-2.963-1.755-6.59 11.032-6.936 11.212-1.418-.478.253-1.004.456-1.417.773-.606-1.063-.93-1.958-2.32-2.45-2.074-.733-5.5-.293-5.412 1.935.112 2.916 5.67 2.2 7.99 3.738z"/></g></svg>