<svg xmlns="http://www.w3.org/2000/svg" xmlns:xlink="http://www.w3.org/1999/xlink" width="66" height="92" viewBox="0 0 66 92"><defs><path id="a" d="M0 10.297h66V79H0z"/></defs><clipPath id="b"><use xlink:href="#a" overflow="visible"/></clipPath><path clip-path="url(#b)" fill="#FFF" d="M47.52 74.496h.58v4.432h-.58zM25.565 74.986h1.348v3.942h.577v-3.942h1.352v-.49h-3.277z"/><g clip-path="url(#b)"><defs><path id="c" d="M0 10.296h66V79H0z"/></defs><clipPath id="d"><use xlink:href="#c" overflow="visible"/></clipPath><path clip-path="url(#d)" fill="#FFF" d="M21.424 70.547h-.033c-1.35 0-2.195-1.31-2.178-3.19 0-1.82.828-3.19 2.18-3.19 1.37 0 2.176 1.37 2.176 3.172 0 1.898-.792 3.207-2.144 3.207m.03-8.604c-3.22 0-5.213 2.428-5.213 5.473 0 2.914 1.793 5.354 5.04 5.354h.016c3.22 0 5.243-2.146 5.243-5.523 0-2.798-1.71-5.304-5.086-5.304"/></g><path clip-path="url(#b)" fill="#FFF" d="M51.502 66.002h-3.405v-3.89H45.28V72.6h2.817v-4.137h3.405V72.6h2.817V62.11H51.5z"/><g clip-path="url(#b)"><defs><path id="e" d="M0 10.296h66V79H0z"/></defs><clipPath id="f"><use xlink:href="#e" overflow="visible"/></clipPath><path clip-path="url(#f)" fill="#FFF" d="M22.177 76.416c-.612-.236-.883-.44-.883-.848 0-.3.232-.664.836-.664.403 0 .695.127.835.21l.156-.474c-.19-.104-.52-.21-.97-.21-.863 0-1.43.513-1.43 1.204 0 .617.446.998 1.167 1.248.6.227.835.465.835.877 0 .45-.343.753-.927.753a1.99 1.99 0 0 1-1.018-.285l-.15.473c.236.16.704.292 1.13.292 1.042 0 1.54-.6 1.54-1.277 0-.65-.373-1.002-1.12-1.3"/></g><path clip-path="url(#b)" fill="#FFF" d="M44.82 62.113H36.61v2.366h2.676V72.6H42.1V64.48h2.72z"/><g clip-path="url(#b)"><defs><path id="g" d="M0 10.296h66V79H0z"/></defs><clipPath id="h"><use xlink:href="#g" overflow="visible"/></clipPath><path clip-path="url(#h)" fill="#FFF" d="M37.605 77.088l.432-1.285c.086-.27.16-.543.218-.8h.02c.066.257.132.52.225.81l.44 1.275h-1.335zm.336-2.592l-1.507 4.432h.592l.46-1.395h1.57l.472 1.395h.61l-1.507-4.432h-.69zM17.427 77.123c0 .975-.43 1.406-1.08 1.406-.586 0-1.027-.417-1.027-1.407v-2.627h-.58v2.613c0 1.374.685 1.89 1.59 1.89.96 0 1.674-.555 1.674-1.914v-2.59h-.577v2.627z"/></g><path clip-path="url(#b)" fill="#FFF" d="M43.213 74.496h-.576v4.432h2.47v-.483h-1.894z"/><g clip-path="url(#b)"><defs><path id="i" d="M0 10.296h66V79H0z"/></defs><clipPath id="j"><use xlink:href="#i" overflow="visible"/></clipPath><path clip-path="url(#j)" fill="#FFF" d="M32.476 76.574h-.585v-1.61c.098-.026.29-.054.565-.054.603 0 1.017.254 1.017.82 0 .508-.386.844-.996.844m.74.244v-.023c.46-.154.837-.54.837-1.12 0-.35-.132-.65-.348-.843-.275-.248-.678-.363-1.29-.363-.384 0-.807.036-1.096.093v4.365h.57v-1.92h.54c.52.018.76.248.893.863.118.55.216.925.29 1.058h.59c-.086-.172-.188-.598-.336-1.22-.113-.456-.313-.77-.65-.89M51.785 77.088l.433-1.285c.086-.27.16-.543.217-.8h.02c.065.257.133.52.226.81l.442 1.275h-1.337zm.337-2.592l-1.505 4.432h.59l.458-1.395h1.57l.473 1.395h.61l-1.507-4.432h-.688zM33.334 68.07c0 1.666-.546 2.477-1.664 2.477-1.105 0-1.65-.89-1.65-2.477v-5.957h-2.816v5.727c0 3.36 1.522 4.93 4.386 4.93 2.942 0 4.558-1.633 4.558-4.87v-5.786h-2.813v5.956zM9.907 77.088l.433-1.285c.086-.27.16-.543.222-.8h.016c.064.257.13.52.224.81l.44 1.275H9.907zm.336-2.592L8.74 78.928h.59l.457-1.395h1.57l.476 1.395h.61l-1.51-4.432h-.69zM13.032 66.25c-1.322-.498-1.88-.7-1.88-1.227 0-.467.464-.78 1.323-.78 1.04 0 1.817.296 2.27.5l.592-2.255c-.685-.3-1.586-.53-2.832-.53-2.645 0-4.22 1.43-4.22 3.28 0 1.557 1.186 2.523 2.96 3.162 1.178.402 1.646.686 1.646 1.193 0 .53-.467.86-1.43.86a6.356 6.356 0 0 1-2.722-.653l-.53 2.316c.59.312 1.82.637 3.083.637 3.062 0 4.46-1.54 4.46-3.344.003-1.463-.835-2.457-2.718-3.16"/></g><path clip-path="url(#b)" fill="#FFF" d="M0 29.715l8.74 26.89 14.673-9.17v-15.46h19.173v22.818l11.732 4.504L66 34.247 29.373 11.36z"/><path clip-path="url(#b)" fill="#FFF" d="M41.082 54.215V33.48h-16.16v14.532l.964.37V35.634h11.747v17.26z"/><path clip-path="url(#b)" fill="#FFF" d="M36.13 52.312V37.144h-8.742v2.15h5.94v11.944z"/><g clip-path="url(#b)"><defs><path id="k" d="M0 10.296h66V79H0z"/></defs><clipPath id="l"><use xlink:href="#k" overflow="visible"/></clipPath><g opacity=".8" clip-path="url(#l)"><defs><path id="m" d="M38.382 9.274h36.822V35.27H38.382z"/></defs><clipPath id="n"><use xlink:href="#m" overflow="visible"/></clipPath><path opacity=".5" clip-path="url(#n)" fill="#FFF" d="M47.586 22.74L66 34.246l-11.682-23.95z"/></g></g><g fill="#FFF"><path d="M65.343 35.354l-36.26-22.652L0 30.875 8.658 57.49l14.525-9.075V33.11H42.16v22.587l11.603 4.464z"/><path d="M40.672 34.605H24.675V48.98l.946.374V36.73h11.642v17.082l3.41 1.31z"/><path d="M27.116 38.222v2.13h5.873V52.18l2.777 1.06V38.222z"/><path opacity=".75" d="M53.763 11.65l-6.657 12.313 18.237 11.39z"/></g></svg>