<svg id="Layer_1" xmlns="http://www.w3.org/2000/svg" width="30" height="30" viewBox="0 0 30 30"><style>.st0{fill:#FFF}</style><path id="XMLID_32_" class="st0" d="M15 0C6.716 0 0 6.716 0 15c0 8.284 6.716 15 15 15s15-6.716 15-15c0-8.284-6.716-15-15-15zm7.29 11.235c.008.163.01.327.01.49 0 5.005-3.782 10.775-10.7 10.775-2.123 0-4.1-.627-5.766-1.7a7.6 7.6 0 0 0 .898.05 7.528 7.528 0 0 0 4.672-1.62A3.77 3.77 0 0 1 7.89 16.6a3.757 3.757 0 0 0 1.698-.065 3.784 3.784 0 0 1-3.017-3.713v-.048a3.728 3.728 0 0 0 1.704.473 3.793 3.793 0 0 1-1.673-3.15c0-.694.187-1.346.51-1.904a10.66 10.66 0 0 0 7.752 3.957 3.956 3.956 0 0 1-.096-.863c0-2.09 1.683-3.787 3.76-3.787 1.083 0 2.06.46 2.745 1.197a7.496 7.496 0 0 0 2.39-.92 3.785 3.785 0 0 1-1.654 2.095 7.452 7.452 0 0 0 2.16-.596 7.645 7.645 0 0 1-1.875 1.96z"/></svg>