<?xml version="1.0" encoding="utf-8"?>
<!-- Generator: Adobe Illustrator 19.0.0, SVG Export Plug-In . SVG Version: 6.00 Build 0)  -->
<svg version="1.1" id="Layer_1" xmlns="http://www.w3.org/2000/svg" xmlns:xlink="http://www.w3.org/1999/xlink" x="0px" y="0px"
	 width="120px" height="55px" viewBox="0 0 120 55" style="enable-background:new 0 0 120 55;" xml:space="preserve">
<style type="text/css">
	.st0{fill:#FFFFFF;}
</style>
<g>
	<g id="XMLID_3_">
		<g>
			<path class="st0" d="M117.808,34.436c-1.364,3.147-8.891,3.867-10.698,0c-1.417-3.034-0.118-7.878-0.386-12.244
				c0.698-0.032,1.255-0.208,2.062-0.129c0.496,4.645-1.395,11.452,2.063,12.889c1.946,0.809,3.948,0.153,5.026-0.645
				c2.744-2.032,1.585-7.676,1.804-12.115c0.779,0.003,1.327-0.221,2.192-0.129c0,4.897,0,9.796,0,14.693c-0.688,0-1.376,0-2.063,0
				C117.808,35.981,117.808,35.209,117.808,34.436z"/>
			<path class="st0" d="M92.545,33.018c0.529,3.362,7.391,2.768,8.379-0.387c0.275-0.884,0.052-1.703,0.129-2.837
				C97.561,29.583,91.929,29.107,92.545,33.018z M101.568,36.627c-0.239-0.444-0.463-0.912-0.386-1.676
				c-0.784,0.213-1.107,1.075-2.064,1.547c-3.669,1.806-9.104,0.118-8.765-4.253c0.345-4.394,4.518-3.914,8.636-4.383
				c0.731-0.084,1.576-0.281,2.063-0.902c0.535-4.798-8.19-4.067-8.765-0.773c-1.861-5.227,8.731-5.763,10.568-2.191
				c1.411,2.744-0.242,7.513,0.387,11.73c-0.055,0.572,1.119-0.088,1.031,0.516C103.977,37.031,102.181,36.901,101.568,36.627z"/>
			<path class="st0" d="M85.714,34.049c2.729-0.929,2.573,3.131,0.387,2.965C84.982,36.928,83.906,34.663,85.714,34.049z"/>
			<path class="st0" d="M76.176,33.146c1.754-3.657,3.257-7.57,4.898-11.342c0.685,0.133,1.345,0.286,2.191,0.258
				c-2.205,4.97-4.268,10.08-6.702,14.822c-1.264,0.317-2.083-2.4-2.578-3.48c-1.739-3.793-3.619-7.907-5.156-11.342
				c0.769-0.006,1.491-0.058,2.063-0.258C72.886,25.354,74.36,29.421,76.176,33.146z"/>
			<path class="st0" d="M54.78,31.343c1.832,6.533,14.005,4.087,11.214-3.997c-0.753-2.183-3.008-4.203-6.959-3.479
				C56.017,24.421,53.613,27.182,54.78,31.343z M67.283,25.155c2.706,4.183,0.295,9.469-2.836,11.085
				c-5.148,2.658-11.44-0.499-11.987-5.8c-0.524-5.083,2.722-8.31,7.347-8.636C63.107,21.572,65.959,23.108,67.283,25.155z"/>
			<path class="st0" d="M38.927,25.542c-1.782,5.043,6.378,6.338,7.475,2.191c0.733-2.773-1.266-4.709-4.639-4.125
				C40.26,23.866,39.213,24.731,38.927,25.542z M44.726,32.76c2.71,0.356,6.859,2.322,5.156,6.316
				c-0.981,2.297-4.911,3.4-8.636,3.093c-2.335-0.192-5.872-1.318-5.929-3.737c-0.058-2.481,2.739-2.781,5.413-2.836
				c-1.156,0.678-3.188,0.395-3.48,1.675c-0.808,3.535,11.458,4.819,10.44-0.644c-0.651-3.494-5.96-1.728-8.764-3.223
				c-0.111-1.013,0.239-1.565,0.643-2.062c-1.673-1.07-3.193-2.144-3.223-4.512c-0.054-4.488,6.135-6.59,10.054-4.125
				c1.666-0.569,2.94-1.529,5.027-1.675c-0.039,0.778-0.296,1.338-0.516,1.933c-1.184,0.104-2.226,0.351-2.964,0.902
				c3.111,4.295-1.967,9.308-7.347,7.734C41.269,33.314,43.479,32.596,44.726,32.76z"/>
			<path class="st0" d="M31.579,37.014c-1.41-0.129-1.9-2.433-0.387-2.965C33.78,33.137,33.803,37.216,31.579,37.014z"/>
			<path class="st0" d="M16.24,31.472c-1.813,4.644,6.699,4.841,8.121,1.417c0.397-0.955,0.184-1.804,0.259-3.095
				C21.413,29.707,17.144,29.156,16.24,31.472z M24.62,34.822c-1.414,2.399-7.592,3.55-9.926,0.516
				c-1.392-1.811-0.812-5.136,0.902-6.315c1.669-1.148,4.372-0.865,6.96-1.16c2.015-0.232,2.649-1.417,1.547-2.965
				c-1.668-2.347-7.833-1.52-8.249,1.289c-1.839-4.179,5.697-5.617,9.023-3.737c3.588,2.025,1.237,8.7,1.933,13.275
				c0.013,0.545,1.185-0.066,1.031,0.644c-0.443,0.565-1.857,0.481-2.577,0.387C24.786,36.374,24.736,35.563,24.62,34.822z"/>
			<path class="st0" d="M10.698,29.538c0.962,0.638,1.995,2.084,1.546,4.253c-0.657,3.184-6.711,4.17-9.667,2.578
				C1.361,35.715,0.692,34.616,0,33.146c0-0.043,0-0.086,0-0.129c0.55-0.311,1.023-0.694,1.677-0.901
				c-0.109,3.838,8.533,4.485,8.377,0.644c-0.079-1.957-2.868-2.335-4.768-2.837c-2.177-0.572-4.124-1.021-4.641-2.963
				c-1.754-6.589,11.033-6.936,11.213-1.418c-0.478,0.253-1.004,0.456-1.417,0.773c-0.607-1.063-0.932-1.958-2.32-2.449
				c-2.075-0.734-5.5-0.294-5.413,1.934C2.82,28.716,8.377,28,10.698,29.538z"/>
		</g>
		<g>
		</g>
	</g>
</g>
</svg>
