<?xml version="1.0" encoding="utf-8"?>
<!-- Generator: Adobe Illustrator 19.0.0, SVG Export Plug-In . SVG Version: 6.00 Build 0)  -->
<svg version="1.1" id="Layer_1" xmlns="http://www.w3.org/2000/svg" xmlns:xlink="http://www.w3.org/1999/xlink" x="0px" y="0px"
	 width="30px" height="30px" viewBox="0 0 30 30" style="enable-background:new 0 0 30 30;" xml:space="preserve">
<style type="text/css">
	.st0{fill:#FFFFFF;}
</style>
<path id="XMLID_32_" class="st0" d="M15,0C6.716,0,0,6.716,0,15c0,8.284,6.716,15,15,15s15-6.716,15-15C30,6.716,23.284,0,15,0z
	 M22.291,11.235c0.007,0.163,0.009,0.327,0.009,0.49C22.301,16.73,18.518,22.5,11.6,22.5c-2.123,0-4.101-0.627-5.766-1.701
	c0.295,0.035,0.593,0.052,0.898,0.052c1.762,0,3.384-0.606,4.672-1.62C9.757,19.2,8.369,18.105,7.889,16.6
	c0.23,0.044,0.466,0.068,0.707,0.068c0.344,0,0.676-0.047,0.992-0.133c-1.721-0.348-3.017-1.88-3.017-3.713v-0.048
	c0.508,0.283,1.087,0.454,1.703,0.473c-1.008-0.679-1.673-1.837-1.673-3.151c0-0.693,0.186-1.345,0.51-1.903
	c1.855,2.291,4.627,3.798,7.751,3.957c-0.062-0.278-0.096-0.566-0.096-0.863c0-2.091,1.683-3.787,3.76-3.787
	c1.083,0,2.06,0.46,2.745,1.197c0.857-0.171,1.662-0.486,2.388-0.921c-0.281,0.886-0.876,1.628-1.653,2.096
	c0.762-0.092,1.486-0.294,2.16-0.596C23.664,10.035,23.025,10.701,22.291,11.235z"/>
</svg>
