<?xml version="1.0" encoding="utf-8"?>
<!-- Generator: Adobe Illustrator 19.0.0, SVG Export Plug-In . SVG Version: 6.00 Build 0)  -->
<svg version="1.1" id="Layer_1" xmlns="http://www.w3.org/2000/svg" xmlns:xlink="http://www.w3.org/1999/xlink" x="0px" y="0px"
	 width="54px" height="92px" viewBox="0 0 54 92" style="enable-background:new 0 0 54 92;" xml:space="preserve">
<style type="text/css">
	.st0{fill:#FFFFFF;}
</style>
<g>
	<g>
		<g id="XMLID_3_">
			<g>
				<path class="st0" d="M38.9,59.8c0.7,0,1.3-0.2,2.1-0.1c0.5,4.7-1.4,11.6,2.1,13c2,0.8,4,0.2,5.1-0.6c2.8-2.1,1.6-7.8,1.8-12.2
					c0.8,0,1.3-0.2,2.2-0.1c0,4.9,0,9.9,0,14.8c-0.7,0-1.4,0-2.1,0c0-0.8,0-1.6,0-2.3c-1.4,3.2-9,3.9-10.8,0
					C37.9,69.1,39.2,64.3,38.9,59.8z"/>
				<path class="st0" d="M44.2,53c-1.8-3.8-3.7-8-5.2-11.5c0.8,0,1.5-0.1,2.1-0.3c2,3.6,3.5,7.7,5.3,11.5c1.8-3.7,3.3-7.6,4.9-11.5
					c0.7,0.1,1.4,0.3,2.2,0.3c-2.2,5-4.3,10.2-6.8,15C45.5,56.9,44.7,54.1,44.2,53z"/>
				<path class="st0" d="M50.7,31.2c-3.2-0.1-7.5-0.6-8.5,1.7c-1.8,4.7,6.8,4.9,8.2,1.4C50.9,33.4,50.7,32.5,50.7,31.2z M41.9,27.6
					c-1.9-4.2,5.8-5.7,9.1-3.8c3.6,2,1.2,8.8,1.9,13.4c0,0.6,1.2-0.1,1,0.7c-0.4,0.6-1.9,0.5-2.6,0.4c-0.5-0.4-0.5-1.2-0.7-2
					c-1.4,2.4-7.7,3.6-10,0.5c-1.4-1.8-0.8-5.2,0.9-6.4c1.7-1.2,4.4-0.9,7-1.2c2-0.2,2.7-1.4,1.6-3C48.5,23.9,42.3,24.8,41.9,27.6z"
					/>
				<path class="st0" d="M34.5,55.9C29.3,58.6,23,55.4,22.4,50c-0.5-5.1,2.8-8.4,7.4-8.7c3.3-0.2,6.2,1.3,7.5,3.4
					C40.1,48.9,37.7,54.3,34.5,55.9z M29.1,43.4c-3,0.6-5.5,3.3-4.3,7.5c1.8,6.6,14.1,4.1,11.3-4C35.3,44.7,33,42.7,29.1,43.4z"/>
				<path class="st0" d="M24.6,70.8c0.5,3.4,7.5,2.8,8.5-0.4c0.3-0.9,0.1-1.7,0.1-2.9C29.6,67.3,24,66.8,24.6,70.8z M36.4,74
					c-0.3,0.8-2.1,0.7-2.7,0.4c-0.2-0.4-0.5-0.9-0.4-1.7c-0.8,0.2-1.1,1.1-2.1,1.6c-3.7,1.8-9.2,0.1-8.9-4.3c0.3-4.4,4.6-4,8.7-4.4
					c0.7-0.1,1.6-0.3,2.1-0.9c0.5-4.8-8.3-4.1-8.9-0.8c-1.9-5.3,8.8-5.8,10.7-2.2c1.4,2.8-0.2,7.6,0.4,11.8
					C35.3,74.1,36.5,73.4,36.4,74z"/>
				<path class="st0" d="M17.7,71.8c2.8-0.9,2.6,3.2,0.4,3C16.9,74.7,15.9,72.4,17.7,71.8z"/>
				<path class="st0" d="M11.6,43.1c-1.5,0.3-2.6,1.1-2.9,2c-1.8,5.1,6.4,6.4,7.5,2.2C17,44.5,15,42.5,11.6,43.1z M19.8,58.7
					c-1,2.3-5,3.4-8.7,3.1c-2.4-0.2-5.9-1.3-6-3.8c-0.1-2.5,2.8-2.8,5.5-2.9c-1.2,0.7-3.2,0.4-3.5,1.7c-0.8,3.6,11.6,4.9,10.5-0.6
					c-0.7-3.5-6-1.7-8.9-3.3c-0.1-1,0.2-1.6,0.7-2.1c-1.7-1.1-3.2-2.2-3.3-4.6c-0.1-4.5,6.2-6.7,10.2-4.2c1.7-0.6,3-1.5,5.1-1.7
					c0,0.8-0.3,1.3-0.5,2c-1.2,0.1-2.2,0.4-3,0.9c3.1,4.3-2,9.4-7.4,7.8c0.7,1.7,2.9,1,4.2,1.2C17.3,52.7,21.5,54.7,19.8,58.7z"/>
				<path class="st0" d="M0.9,53.7c2.6-0.9,2.6,3.2,0.4,3C-0.1,56.5-0.6,54.2,0.9,53.7z"/>
			</g>
			<g>
			</g>
		</g>
	</g>
	<path class="st0" d="M25.9,34.6c0.7,1.5,1.4,2.6,2.6,3.3c3,1.6,9.1,0.6,9.8-2.6c0.5-2.2-0.6-3.7-1.6-4.3c-2.3-1.6-8-0.8-8.1-3.8
		c-0.1-2.2,3.4-2.7,5.5-2c1.4,0.5,1.7,1.4,2.3,2.5c0.4-0.3,1-0.5,1.4-0.8c-0.2-5.6-13.1-5.2-11.3,1.4c0.5,2,2.5,2.4,4.7,3
		c1.9,0.5,4.7,0.9,4.8,2.9c0.2,3.9-8.6,3.2-8.5-0.7c-0.7,0.2-1.1,0.6-1.7,0.9"/>
</g>
</svg>
